<?xml version="1.0" encoding="utf-8"?>
<!-- Generator: Adobe Illustrator 25.2.1, SVG Export Plug-In . SVG Version: 6.00 Build 0)  -->
<svg version="1.1" id="Capa_1" xmlns="http://www.w3.org/2000/svg" xmlns:xlink="http://www.w3.org/1999/xlink" x="0px" y="0px"
	 viewBox="0 0 24 24" style="enable-background:new 0 0 24 24;" xml:space="preserve">
<style type="text/css">
	.st0{fill:#FFFFFF;}
</style>
<g>
	<path class="st0" d="M2,10.3L2,10.3l-1.2,0.6L0.5,9.8L2.2,9h1.2v6.3H2V10.3z"/>
	<path class="st0" d="M10.2,12.1c0,2-0.8,3.3-2.4,3.3c-1.6,0-2.4-1.5-2.4-3.3c0-1.8,0.8-3.3,2.4-3.3C9.5,8.9,10.2,10.4,10.2,12.1z
		 M6.9,12.2c0,1.4,0.3,2.1,0.9,2.1c0.6,0,0.9-0.7,0.9-2.2c0-1.4-0.3-2.1-0.9-2.1C7.2,10,6.9,10.7,6.9,12.2z"/>
	<path class="st0" d="M15.4,9v0.9l-2.6,5.4h-1.6l2.6-5.1v0H11V9H15.4z"/>
	<path class="st0" d="M16.4,14.5c0-0.5,0.4-0.9,0.9-0.9s0.9,0.4,0.9,0.9c0,0.5-0.4,0.9-0.9,0.9C16.7,15.4,16.4,15,16.4,14.5z"/>
	<path class="st0" d="M18.7,13.7c0-0.8,0.4-1.3,1.1-1.6v0c-0.6-0.3-0.9-0.8-0.9-1.4c0-1.1,1-1.8,2.2-1.8c1.5,0,2.1,0.9,2.1,1.6
		c0,0.5-0.3,1.1-0.9,1.4v0c0.6,0.2,1.2,0.8,1.2,1.6c0,1.1-1,1.9-2.4,1.9C19.4,15.4,18.7,14.5,18.7,13.7z M22,13.6c0-0.6-0.4-0.9-1-1
		c-0.5,0.1-0.8,0.5-0.8,0.9c0,0.5,0.3,0.9,0.9,0.9C21.6,14.4,22,14.1,22,13.6z M20.3,10.6c0,0.4,0.4,0.7,0.9,0.9
		c0.3-0.1,0.6-0.4,0.6-0.8c0-0.4-0.2-0.8-0.8-0.8C20.6,9.9,20.3,10.2,20.3,10.6z"/>
</g>
</svg>
