<?xml version="1.0" encoding="utf-8"?>
<!-- Generator: Adobe Illustrator 25.2.1, SVG Export Plug-In . SVG Version: 6.00 Build 0)  -->
<svg version="1.1" id="Capa_1" xmlns="http://www.w3.org/2000/svg" xmlns:xlink="http://www.w3.org/1999/xlink" x="0px" y="0px"
	 viewBox="0 0 250 74" style="enable-background:new 0 0 250 74;" xml:space="preserve">
<style type="text/css">
	.st0{fill:#FFFFFF;}
</style>
<g>
	<path class="st0" d="M237.7,0H12.2C5.5,0,0,5.5,0,12.2v49.5C0,68.5,5.5,74,12.2,74h225.5c6.8,0,12.2-5.5,12.2-12.2V12.2
		C250,5.5,244.5,0,237.7,0z M248.4,61.8c0,5.9-4.8,10.6-10.6,10.6H12.2c-5.9,0-10.6-4.8-10.6-10.6V12.2c0-5.8,4.8-10.6,10.6-10.6
		h225.5c5.9,0,10.6,4.8,10.6,10.6L248.4,61.8L248.4,61.8z M10.3,41.1c0-5.2,0-10.5,0-15.7c0-5.5,5.3-8.7,10.1-6
		c9.5,5.3,19,10.7,28.4,16.2c4.5,2.6,4.5,8.7,0,11.4c-9.5,5.5-19,10.9-28.6,16.2c-4.6,2.5-9.8-0.8-9.9-6
		C10.3,51.7,10.3,46.4,10.3,41.1z M14.6,53.8c0.6-0.6,1-0.9,1.4-1.3c3.1-3.2,6.2-6.3,9.3-9.5c1.4-1.5,1.5-2.2,0-3.7
		c-3.3-3.3-6.5-6.5-9.8-9.8c-0.3-0.3-0.6-0.4-1-0.7C14.6,37.2,14.6,45.4,14.6,53.8z M15.4,22.7c0,0.2,0,0.4,0,0.6
		c4.6,4.6,9.1,9.2,13.7,13.8c0.4,0.4,1.7,0.4,2.2,0c1.6-1.2,3-2.7,4.7-4.2c-6.1-3.5-11.8-6.8-17.6-9.9
		C17.6,22.5,16.4,22.7,15.4,22.7z M39.2,47.6c2.6-1.5,4.9-2.8,7-4.1c2.2-1.3,2.2-3.4,0-4.8c-1.9-1.2-3.7-2.3-5.7-3.3
		c-0.4-0.2-1.4-0.1-1.7,0.2c-1.4,1.2-2.7,2.6-4.1,4c-1.1,1-1,2.1,0,3.1C36.2,44.4,37.6,46,39.2,47.6z M15.2,59
		c1.3,1.2,2.4,0.9,3.6,0.2c4.9-2.8,9.8-5.5,14.6-8.3c0.7-0.4,1.4-0.8,2.2-1.3c-1.5-1.4-2.8-2.7-4.1-4c-0.9-0.9-2-0.9-2.8-0.1
		C24.3,49.9,19.8,54.4,15.2,59z M90.1,31.5c-0.8,0.8-1.6,1.6-2.5,2.5c-2.2-1.7-4.8-3-7.7-2.3c-1.9,0.5-3.8,1.4-5.3,2.6
		c-3.1,2.7-3.7,7.5-1.8,11.2c1.8,3.6,6,5.7,10,5c4-0.7,6.3-3,7-7c-1.4,0-2.8,0-4.2,0c-1.4,0-2.8,0-4.4,0c0-1.2,0-2.4,0-3.7
		c3.9,0,7.6,0,11.4,0.1c0.4,0,0.9,0.8,1,1.3c0.9,6.1-3.3,11.7-9.5,12.9c-7.4,1.4-14.5-3.2-16.1-10.5c-1.2-5.4,1.5-11,6.5-14
		c4.8-2.8,11.3-2.2,15.3,1.3C89.9,31.2,90,31.4,90.1,31.5z M144.6,53c-4.6,2.2-8.3,1.5-10.9-1.9c-2.4-3.3-2.2-7.9,0.5-10.9
		c2.8-3.1,6.4-3.6,9.6-1.8c1.8-0.3,3.1-0.5,4.4-0.7c0.1,0.6,0.2,1,0.2,1.3c0,5,0.1,9.9,0,14.9c-0.1,4.2-2.2,7.1-5.8,7.9
		c-4,0.9-7.7-0.6-9.6-4c-0.1-0.2-0.2-0.4-0.3-0.9c1-0.4,2-0.9,3-1.3c2.7,2.9,4.3,3.5,6.5,2.5C144.2,57.3,144.9,55.6,144.6,53z
		 M145,45.9c0-2.9-1.9-5.1-4.5-5.1c-2.6,0-4.7,2.3-4.7,5.2c0,2.7,2.1,5,4.7,5.1C143,51,145,48.7,145,45.9z M186.7,44.4
		c0,3.2,0,6.3,0,9.4c-1.3,0-2.5,0-3.8,0c0-8.3,0-16.5,0-24.8c3.5,0,7-0.3,10.5,0.1c4.3,0.5,7,4.2,6.7,8.2c-0.4,4.1-3.6,7-7.9,7.2
		C190.4,44.4,188.6,44.4,186.7,44.4z M186.7,40.8c1.8,0,3.5,0,5.1,0c2.5-0.1,4.2-1.8,4.3-4.1c0.1-2.1-1.5-4.1-3.8-4.3
		c-1.8-0.2-3.6,0-5.5,0C186.7,35.2,186.7,37.9,186.7,40.8z M218.9,43.9c-0.1-1.8-1.2-2.5-2.4-3c-1.7-0.6-3.2-0.1-5,1.5
		c-1-0.4-2-0.9-3.2-1.4c0.4-0.6,0.7-1.1,1-1.5c2-2.2,5.8-3,9.1-1.8c2.8,1,4.3,3.3,4.4,6.6c0,3.1,0,6.1,0,9.1c-2.8,0.6-3.4,0.5-4-1.1
		c-2,2-4.5,2.3-7,1.5c-2.3-0.8-3.6-2.4-3.8-4.8c-0.2-2,1.1-4,3.3-5C213.6,42.8,216.1,42.9,218.9,43.9z M218.9,47
		c-2-0.9-4-1.1-5.9-0.1c-0.6,0.4-1.2,1.4-1.2,2.1c0,0.6,0.9,1.4,1.6,1.6C215.7,51.6,218.2,50,218.9,47z M111.9,45.8
		c0,4.9-3.6,8.5-8.6,8.5c-4.9,0-8.6-3.6-8.6-8.4c0-4.9,3.7-8.6,8.7-8.6C108.3,37.3,111.9,40.9,111.9,45.8z M98.6,45.8
		c0,2.9,2.1,5.2,4.7,5.2c2.6,0,4.8-2.3,4.8-5.2c0-2.8-2-5-4.6-5C100.7,40.7,98.7,42.9,98.6,45.8z M122,54.3c-4.9,0-8.6-3.7-8.6-8.5
		c0-4.8,3.7-8.5,8.6-8.6c5,0,8.7,3.7,8.7,8.6C130.5,50.8,126.9,54.3,122,54.3z M126.8,45.9c0-2.8-2.1-5.2-4.8-5.1
		c-2.7,0-4.8,2.3-4.8,5.1c0,2.7,2.2,5,4.7,5.1C124.5,51,126.8,48.7,126.8,45.9z M169.5,48.6c1,0.7,1.8,1.2,2.7,1.8
		c-1.9,3.7-6.7,4.5-9.8,3.5c-4-1.3-6.2-5.1-5.6-9.7c0.5-3.8,3.6-6.7,7.4-7c3.9-0.3,7.1,2.2,8.2,6.5c-3.7,1.5-7.4,3.1-11.1,4.6
		C163,51.7,166.2,51.8,169.5,48.6z M160.6,45.4c2.5-1.1,4.9-2.1,7.3-3.1c-1.2-1.6-2.5-2-4.1-1.5C161.8,41.4,160.7,42.9,160.6,45.4z
		 M226,61.2c1-2.3,2-4.5,3-6.6c0.6-1.2,0.6-2.1,0.1-3.3c-1.8-3.8-3.5-7.7-5.2-11.6c-0.2-0.5-0.4-1.1-0.7-1.9c1.2,0,2.3-0.1,3.3,0.1
		c0.5,0.1,1,0.7,1.3,1.2c1.1,2.5,2.1,5.1,3.2,7.7c0.2,0.5,0.5,1,0.8,1.8c1.2-3,2.5-5.6,3.3-8.3c0.6-2.1,1.7-2.7,3.7-2.4
		c0.4,0.1,0.8,0.1,1.4,0.1c-0.2,0.5-0.3,1-0.4,1.3c-2.8,6.4-5.6,12.9-8.4,19.3C229.8,61.6,229.8,61.6,226,61.2z M151.2,28.9
		c1.2,0,2.4,0,3.6,0c0,8.3,0,16.5,0,24.9c-1.2,0-2.4,0-3.6,0C151.2,45.5,151.2,37.2,151.2,28.9z M205.8,53.8c-1.3,0-2.4,0-3.6,0
		c0-8.3,0-16.6,0-24.9c1.2,0,2.4,0,3.6,0C205.8,37.2,205.8,45.4,205.8,53.8z"/>
	<g>
		<path class="st0" d="M82.8,13.5c0,1.3-0.2,2.4-0.7,3.3c-0.5,0.9-1.2,1.6-2.1,2c-0.9,0.5-2.1,0.7-3.4,0.7h-3.2V7.7H77
			c1.2,0,2.2,0.2,3.1,0.7c0.9,0.4,1.6,1.1,2,1.9C82.6,11.1,82.8,12.2,82.8,13.5z M81.1,13.5c0-1-0.2-1.8-0.5-2.5
			c-0.3-0.7-0.8-1.1-1.4-1.5c-0.6-0.3-1.4-0.5-2.3-0.5H75v9h1.5c1.5,0,2.7-0.4,3.4-1.1C80.7,16.2,81.1,15,81.1,13.5z"/>
		<path class="st0" d="M92.1,19.5h-6.6V7.7h6.6v1.4h-5v3.5h4.7V14h-4.7v4h5V19.5z"/>
		<path class="st0" d="M101.4,16.3c0,0.7-0.2,1.3-0.5,1.8s-0.8,0.9-1.5,1.1c-0.6,0.3-1.4,0.4-2.2,0.4c-0.4,0-0.9,0-1.2-0.1
			c-0.4,0-0.8-0.1-1.1-0.2s-0.6-0.2-0.9-0.3v-1.6c0.4,0.2,1,0.4,1.6,0.5c0.6,0.2,1.2,0.2,1.8,0.2c0.5,0,1-0.1,1.4-0.2
			c0.4-0.1,0.6-0.4,0.8-0.6c0.2-0.3,0.3-0.6,0.3-1c0-0.4-0.1-0.7-0.3-0.9S99,15,98.6,14.8c-0.4-0.2-0.9-0.4-1.6-0.7
			c-0.4-0.2-0.9-0.3-1.2-0.6c-0.4-0.2-0.7-0.4-0.9-0.7c-0.3-0.3-0.5-0.6-0.6-0.9c-0.1-0.4-0.2-0.8-0.2-1.3c0-0.7,0.2-1.2,0.5-1.7
			c0.3-0.5,0.8-0.8,1.3-1.1c0.6-0.2,1.2-0.4,2-0.4c0.6,0,1.2,0.1,1.7,0.2c0.5,0.1,1.1,0.3,1.5,0.5l-0.5,1.4
			c-0.5-0.2-0.9-0.3-1.4-0.5c-0.5-0.1-0.9-0.2-1.4-0.2c-0.5,0-0.8,0.1-1.2,0.2c-0.3,0.1-0.6,0.3-0.7,0.6c-0.2,0.2-0.2,0.5-0.2,0.9
			c0,0.4,0.1,0.7,0.3,1c0.2,0.3,0.4,0.5,0.8,0.7c0.4,0.2,0.9,0.4,1.5,0.7c0.7,0.3,1.2,0.5,1.7,0.8c0.5,0.3,0.8,0.6,1.1,1.1
			S101.4,15.7,101.4,16.3z"/>
		<path class="st0" d="M108.7,8.9c-0.6,0-1.2,0.1-1.6,0.3c-0.5,0.2-0.9,0.5-1.2,0.9c-0.3,0.4-0.6,0.9-0.8,1.5
			c-0.2,0.6-0.3,1.2-0.3,1.9c0,1,0.1,1.8,0.4,2.5c0.3,0.7,0.7,1.2,1.3,1.6c0.6,0.4,1.3,0.6,2.2,0.6c0.5,0,1,0,1.5-0.1
			c0.5-0.1,0.9-0.2,1.4-0.4v1.4c-0.5,0.2-0.9,0.3-1.4,0.4c-0.5,0.1-1,0.1-1.7,0.1c-1.2,0-2.2-0.3-3-0.8c-0.8-0.5-1.4-1.2-1.8-2.1
			s-0.6-2-0.6-3.2c0-0.9,0.1-1.7,0.4-2.5c0.2-0.7,0.6-1.4,1.1-1.9c0.5-0.5,1.1-1,1.8-1.3s1.5-0.4,2.4-0.4c0.6,0,1.2,0.1,1.7,0.2
			c0.6,0.1,1.1,0.3,1.6,0.5l-0.6,1.4c-0.4-0.2-0.8-0.3-1.3-0.5S109.2,8.9,108.7,8.9z"/>
		<path class="st0" d="M121.5,19.5l-1.3-3.5h-4.6l-1.3,3.5h-1.7l4.5-11.9h1.7l4.5,11.9H121.5z M119.8,14.5l-1.2-3.5
			c0-0.1-0.1-0.3-0.2-0.5c-0.1-0.2-0.2-0.5-0.2-0.7c-0.1-0.3-0.1-0.5-0.2-0.6c-0.1,0.2-0.1,0.5-0.2,0.7c-0.1,0.2-0.1,0.5-0.2,0.7
			c-0.1,0.2-0.1,0.4-0.2,0.5l-1.3,3.5H119.8z"/>
		<path class="st0" d="M128.1,7.7c1,0,1.8,0.1,2.5,0.4c0.6,0.2,1.1,0.6,1.5,1.1c0.3,0.5,0.5,1.1,0.5,1.9c0,0.6-0.1,1.1-0.3,1.5
			c-0.2,0.4-0.5,0.8-0.9,1c-0.4,0.3-0.7,0.5-1.2,0.6l3.3,5.3h-1.9l-2.9-4.8h-2.2v4.8h-1.7V7.7H128.1z M128,9.1h-1.5v4.2h1.6
			c0.9,0,1.6-0.2,2-0.5c0.4-0.4,0.6-0.9,0.6-1.6c0-0.7-0.2-1.3-0.7-1.6S129,9.1,128,9.1z"/>
		<path class="st0" d="M140.2,13.2h4.3V19c-0.6,0.2-1.3,0.4-1.9,0.5c-0.7,0.1-1.4,0.2-2.2,0.2c-1.2,0-2.2-0.2-3.1-0.7
			c-0.8-0.5-1.5-1.2-1.9-2.1c-0.4-0.9-0.6-2-0.6-3.3c0-1.2,0.2-2.3,0.7-3.2c0.5-0.9,1.2-1.6,2.1-2.1s2-0.8,3.3-0.8
			c0.6,0,1.3,0.1,1.9,0.2c0.6,0.1,1.1,0.3,1.6,0.5l-0.6,1.4c-0.4-0.2-0.9-0.3-1.4-0.5c-0.5-0.1-1-0.2-1.6-0.2
			c-0.9,0-1.7,0.2-2.3,0.6c-0.6,0.4-1.1,0.9-1.5,1.6c-0.3,0.7-0.5,1.5-0.5,2.5c0,0.9,0.1,1.7,0.4,2.4c0.3,0.7,0.7,1.2,1.4,1.6
			c0.6,0.4,1.4,0.6,2.4,0.6c0.5,0,0.9,0,1.3-0.1c0.3-0.1,0.7-0.1,1-0.2v-3.3h-2.6V13.2z"/>
		<path class="st0" d="M154.6,19.5l-1.3-3.5h-4.6l-1.3,3.5h-1.7l4.5-11.9h1.7l4.5,11.9H154.6z M152.9,14.5l-1.2-3.5
			c0-0.1-0.1-0.3-0.2-0.5c-0.1-0.2-0.2-0.5-0.2-0.7c-0.1-0.3-0.1-0.5-0.2-0.6c-0.1,0.2-0.1,0.5-0.2,0.7c-0.1,0.2-0.1,0.5-0.2,0.7
			c-0.1,0.2-0.1,0.4-0.2,0.5l-1.3,3.5H152.9z"/>
		<path class="st0" d="M161.2,7.7c1,0,1.8,0.1,2.5,0.4c0.6,0.2,1.1,0.6,1.5,1.1c0.3,0.5,0.5,1.1,0.5,1.9c0,0.6-0.1,1.1-0.3,1.5
			s-0.5,0.8-0.9,1c-0.4,0.3-0.7,0.5-1.2,0.6l3.3,5.3h-1.9l-2.9-4.8h-2.2v4.8H158V7.7H161.2z M161.1,9.1h-1.5v4.2h1.6
			c0.9,0,1.6-0.2,2-0.5c0.4-0.4,0.6-0.9,0.6-1.6c0-0.7-0.2-1.3-0.7-1.6C162.8,9.2,162.1,9.1,161.1,9.1z"/>
		<path class="st0" d="M179.3,19.5h-6.6V7.7h6.6v1.4h-5v3.5h4.7V14h-4.7v4h5V19.5z"/>
		<path class="st0" d="M191.4,19.5h-2l-6.1-9.7h-0.1c0,0.3,0,0.6,0.1,1c0,0.3,0,0.7,0.1,1.1c0,0.4,0,0.8,0,1.2v6.5h-1.5V7.7h2
			l6.1,9.6h0.1c0-0.2,0-0.5,0-0.9c0-0.4,0-0.7,0-1.1c0-0.4,0-0.8,0-1.1V7.7h1.5V19.5z"/>
	</g>
</g>
</svg>
